<?xml version="1.0" encoding="UTF-8"?>
<svg id="Layer_1" data-name="Layer 1" xmlns="http://www.w3.org/2000/svg" viewBox="0 0 66.54 66.54">
  <defs>
    <style>
      .cls-1 {
        fill: #ff8e1b;
      }

      .cls-1, .cls-2, .cls-3 {
        stroke: #ff8e1b;
        stroke-miterlimit: 10;
      }

      .cls-2, .cls-3 {
        fill: #eee;
      }

      .cls-3 {
        stroke-width: .2px;
      }
    </style>
  </defs>
  <circle class="cls-1" cx="33.27" cy="33.27" r="32.77"/>
  <path class="cls-2" d="M15.1,45.07s-5.49-8.1-3.14-18.29c0,0,18.42,6.27,3.14,18.29Z"/>
  <path class="cls-2" d="M16.58,18.9s6.16-7.6,16.59-8.31c0,0-.65,19.45-16.59,8.31Z"/>
  <path class="cls-2" d="M41.65,12.41s8.97,3.92,12.42,13.8c0,0-18.93,4.53-12.42-13.8Z"/>
  <path class="cls-2" d="M55.83,35.63s-1.83,9.61-10.7,15.17c0,0-8.62-17.45,10.7-15.17Z"/>
  <path class="cls-2" d="M37.24,54.95s-9.57,2.04-18.13-3.97c0,0,12.74-14.72,18.13,3.97Z"/>
  <circle class="cls-3" cx="25.8" cy="32" r="1.87"/>
  <circle class="cls-3" cx="34.56" cy="26.06" r="1.87"/>
  <circle class="cls-3" cx="40.47" cy="34.78" r="1.87"/>
  <circle class="cls-3" cx="31.61" cy="40.28" r="1.87"/>
</svg>