<svg width="35" height="35" viewBox="0 0 35 35" fill="none" xmlns="http://www.w3.org/2000/svg">
<g id="ri:instagram-fill">
<path id="Vector" d="M18.9993 2.91663C20.64 2.921 21.4727 2.92975 22.1916 2.95017L22.4746 2.96038C22.8012 2.97204 23.1235 2.98663 23.5129 3.00413C25.0646 3.07704 26.1233 3.32204 27.0523 3.68225C28.0148 4.05267 28.8256 4.55433 29.6364 5.36371C30.3783 6.09249 30.9521 6.9744 31.3179 7.94788C31.6781 8.87683 31.9231 9.93558 31.996 11.4887C32.0135 11.8766 32.0281 12.1989 32.0398 12.527L32.0485 12.81C32.0704 13.5275 32.0791 14.3602 32.0821 16.0008L32.0835 17.0887V18.9991C32.0871 20.0628 32.0759 21.1266 32.05 22.19L32.0412 22.4729C32.0296 22.801 32.015 23.1233 31.9975 23.5112C31.9246 25.0643 31.6766 26.1216 31.3179 27.052C30.9521 28.0255 30.3783 28.9074 29.6364 29.6362C28.9076 30.3781 28.0257 30.9519 27.0523 31.3177C26.1233 31.6779 25.0646 31.9229 23.5129 31.9958L22.4746 32.0395L22.1916 32.0483C21.4727 32.0687 20.64 32.0789 18.9993 32.0818L17.9114 32.0833H16.0025C14.9383 32.087 13.8741 32.0759 12.8102 32.0498L12.5273 32.041C12.1811 32.0279 11.835 32.0128 11.4889 31.9958C9.93726 31.9229 8.87851 31.6779 7.94809 31.3177C6.97514 30.9517 6.09374 30.3779 5.36539 29.6362C4.62302 28.9076 4.04867 28.0257 3.68247 27.052C3.32226 26.1231 3.07726 25.0643 3.00435 23.5112L2.9606 22.4729L2.9533 22.19C2.92642 21.1266 2.91427 20.0629 2.91685 18.9991V16.0008C2.91281 14.9371 2.9235 13.8734 2.94893 12.81L2.95914 12.527C2.9708 12.1989 2.98539 11.8766 3.00289 11.4887C3.0758 9.93558 3.3208 8.87829 3.68101 7.94788C4.04807 6.974 4.62342 6.09205 5.36685 5.36371C6.09478 4.62222 6.97566 4.0484 7.94809 3.68225C8.87851 3.32204 9.9358 3.07704 11.4889 3.00413C11.8768 2.98663 12.2006 2.97204 12.5273 2.96038L12.8102 2.95163C13.8736 2.92572 14.9373 2.91453 16.001 2.91808L18.9993 2.91663ZM17.5002 10.2083C15.5663 10.2083 13.7116 10.9765 12.3442 12.344C10.9767 13.7114 10.2085 15.5661 10.2085 17.5C10.2085 19.4338 10.9767 21.2885 12.3442 22.6559C13.7116 24.0234 15.5663 24.7916 17.5002 24.7916C19.434 24.7916 21.2887 24.0234 22.6562 22.6559C24.0236 21.2885 24.7918 19.4338 24.7918 17.5C24.7918 15.5661 24.0236 13.7114 22.6562 12.344C21.2887 10.9765 19.434 10.2083 17.5002 10.2083ZM17.5002 13.125C18.0747 13.1249 18.6436 13.2379 19.1745 13.4577C19.7053 13.6775 20.1877 13.9997 20.594 14.4059C21.0003 14.812 21.3226 15.2943 21.5426 15.825C21.7626 16.3558 21.8758 16.9247 21.8759 17.4992C21.876 18.0738 21.7629 18.6427 21.5432 19.1735C21.3234 19.7044 21.0012 20.1867 20.595 20.593C20.1888 20.9994 19.7066 21.3217 19.1758 21.5417C18.6451 21.7616 18.0762 21.8749 17.5016 21.875C16.3413 21.875 15.2285 21.414 14.408 20.5936C13.5876 19.7731 13.1266 18.6603 13.1266 17.5C13.1266 16.3396 13.5876 15.2268 14.408 14.4064C15.2285 13.5859 16.3413 13.125 17.5016 13.125M25.1579 8.02079C24.6744 8.02079 24.2108 8.21285 23.8689 8.55471C23.527 8.89658 23.335 9.36024 23.335 9.84371C23.335 10.3272 23.527 10.7908 23.8689 11.1327C24.2108 11.4746 24.6744 11.6666 25.1579 11.6666C25.6414 11.6666 26.105 11.4746 26.4469 11.1327C26.7887 10.7908 26.9808 10.3272 26.9808 9.84371C26.9808 9.36024 26.7887 8.89658 26.4469 8.55471C26.105 8.21285 25.6414 8.02079 25.1579 8.02079Z" fill="black"/>
</g>
</svg>
