<svg width="33" height="32" viewBox="0 0 33 32" fill="none" xmlns="http://www.w3.org/2000/svg">
<path fill-rule="evenodd" clip-rule="evenodd" d="M15.3889 2.58198C14.4934 2.70011 13.388 2.95386 11.8159 3.31698L10.0237 3.73115C8.69657 4.0374 7.78074 4.25032 7.0822 4.48948C6.40699 4.72136 6.02491 4.94886 5.73762 5.23761C5.44887 5.5249 5.22137 5.90698 4.98949 6.58219C4.75032 7.28073 4.53741 8.19511 4.23116 9.52365L3.81699 11.3145C3.45387 12.888 3.20012 13.9934 3.08199 14.8889C2.96532 15.7609 2.99303 16.3516 3.14762 16.8882C3.30074 17.4249 3.59095 17.9397 4.15095 18.6178C4.72699 19.3149 5.52762 20.1184 6.66949 21.2603L9.33824 23.9291C11.3201 25.9109 12.7303 27.3182 13.9437 28.2428C15.1307 29.1499 15.9999 29.4897 16.8822 29.4897C17.7645 29.4897 18.6337 29.1499 19.8222 28.2428C21.0341 27.3182 22.4457 25.9095 24.4276 23.9276C26.411 21.9443 27.8182 20.5341 28.7443 19.3222C29.6484 18.1337 29.9897 17.2659 29.9897 16.3822C29.9897 15.4999 29.6499 14.6322 28.7428 13.4437C27.8182 12.2303 26.4095 10.8187 24.4276 8.83678L21.7589 6.16803C20.6184 5.02761 19.8149 4.22698 19.1193 3.65094C18.4397 3.09094 17.9249 2.80073 17.3882 2.64761C16.8516 2.49303 16.261 2.46678 15.3903 2.58198M15.1045 0.413443C16.1501 0.274901 17.0674 0.279276 17.992 0.544693C18.918 0.81011 19.6982 1.29282 20.512 1.96365C21.2995 2.61407 22.1745 3.48907 23.2697 4.58428L26.0347 7.34928C27.9451 9.25969 29.4589 10.7734 30.4826 12.118C31.5384 13.4991 32.1787 14.8291 32.1787 16.3822C32.1787 17.9368 31.5385 19.2668 30.4841 20.6478C29.4589 21.9924 27.9466 23.5062 26.0347 25.4166L25.918 25.5332C24.0076 27.4437 22.4939 28.9574 21.1493 29.9812C19.7682 31.037 18.4368 31.6772 16.8837 31.6772C15.3305 31.6772 14.0005 31.037 12.618 29.9826C11.2749 28.9574 9.76116 27.4451 7.84928 25.5332L5.08574 22.7668C3.99199 21.673 3.11553 20.7966 2.46512 20.0105C1.79428 19.1953 1.31157 18.4151 1.04616 17.4905C0.780741 16.5645 0.776366 15.6472 0.914908 14.6016C1.04762 13.5895 1.32762 12.382 1.6747 10.8741L2.1122 8.97386C2.40387 7.71532 2.64012 6.68865 2.92157 5.87053C3.21616 5.01448 3.58512 4.29553 4.19178 3.68886C4.79845 3.08219 5.51887 2.71178 6.37345 2.42011C7.19158 2.13719 8.21824 1.90094 9.47678 1.61073L11.377 1.17323C12.8849 0.823235 14.0924 0.546151 15.1045 0.411985M12.8397 10.1595C12.4978 9.81758 12.0341 9.62549 11.5505 9.62549C11.067 9.62549 10.6033 9.81758 10.2614 10.1595C9.91946 10.5014 9.72738 10.9651 9.72738 11.4487C9.72738 11.9322 9.91946 12.3959 10.2614 12.7378C10.4307 12.9071 10.6316 13.0414 10.8528 13.133C11.074 13.2247 11.3111 13.2718 11.5505 13.2718C11.79 13.2718 12.027 13.2247 12.2482 13.133C12.4694 13.0414 12.6704 12.9071 12.8397 12.7378C13.009 12.5685 13.1433 12.3675 13.2349 12.1463C13.3265 11.9251 13.3737 11.6881 13.3737 11.4487C13.3737 11.2092 13.3265 10.9722 13.2349 10.751C13.1433 10.5298 13.009 10.3288 12.8397 10.1595ZM8.71407 8.61365C9.46616 7.86138 10.4863 7.43868 11.55 7.43854C12.6138 7.4384 13.634 7.86084 14.3863 8.61292C15.1385 9.36501 15.5612 10.3851 15.5614 11.4489C15.5615 12.5126 15.1391 13.5328 14.387 14.2851C13.6347 15.0374 12.6144 15.46 11.5505 15.46C10.4867 15.46 9.46635 15.0374 8.71407 14.2851C7.9618 13.5328 7.53918 12.5125 7.53918 11.4487C7.53918 10.3848 7.9618 9.36593 8.71407 8.61365ZM17.9453 16.1547C17.6082 16.1675 17.2896 16.3127 17.0587 16.5587C16.4928 17.1245 16.6416 17.6889 16.8005 17.8478C16.961 18.0068 17.5253 18.1541 18.0897 17.5897C19.233 16.4464 21.2076 16.0672 22.472 17.3316C23.4534 18.313 23.4462 19.7218 22.8585 20.8374C23.003 21.0476 23.0696 21.3017 23.0466 21.5558C23.0236 21.8099 22.9125 22.0479 22.7325 22.2288C22.5526 22.4096 22.3151 22.5218 22.0611 22.546C21.8071 22.5703 21.5527 22.5049 21.3418 22.3614C20.6874 22.7204 19.9282 22.8401 19.1951 22.6997C19.0544 22.6708 18.9207 22.6144 18.8017 22.5338C18.6827 22.4532 18.5808 22.35 18.5017 22.23C18.4226 22.1101 18.3679 21.9757 18.3408 21.8346C18.3136 21.6934 18.3145 21.5484 18.3434 21.4076C18.3724 21.2669 18.4287 21.1332 18.5093 21.0142C18.5899 20.8952 18.6931 20.7933 18.8131 20.7142C18.9331 20.6351 19.0675 20.5804 19.2086 20.5533C19.3497 20.5261 19.4948 20.527 19.6355 20.5559C19.8937 20.6099 20.3107 20.5268 20.668 20.168C21.2324 19.6022 21.0851 19.0378 20.9262 18.8789C20.7657 18.7199 20.2014 18.5726 19.637 19.137C18.4937 20.2803 16.5191 20.6595 15.2547 19.3951C14.2732 18.4137 14.2805 17.0049 14.8682 15.8893C14.7237 15.6791 14.6571 15.4249 14.6801 15.1709C14.7031 14.9168 14.8142 14.6787 14.9942 14.4979C15.1741 14.3171 15.4116 14.2048 15.6656 14.1806C15.9196 14.1564 16.174 14.2218 16.3849 14.3653C16.8807 14.1014 17.4247 13.9614 17.9672 13.9672C18.2573 13.9699 18.5344 14.0877 18.7376 14.2948C18.9408 14.5018 19.0534 14.7811 19.0507 15.0712C19.048 15.3612 18.9302 15.6384 18.7232 15.8416C18.5161 16.0448 18.2354 16.1574 17.9453 16.1547Z" fill="#FE975B"/>
</svg>
