<svg width="25" height="30" viewBox="0 0 25 30" fill="none" xmlns="http://www.w3.org/2000/svg">
<path d="M3.74992 29.5834C2.94784 29.5834 2.26145 29.2981 1.69075 28.7274C1.12006 28.1567 0.834224 27.4698 0.833252 26.6667V3.33341C0.833252 2.53133 1.11909 1.84494 1.69075 1.27425C2.26242 0.703554 2.94881 0.41772 3.74992 0.416748H21.2499C22.052 0.416748 22.7389 0.702581 23.3105 1.27425C23.8822 1.84591 24.1676 2.5323 24.1666 3.33341V26.6667C24.1666 27.4688 23.8812 28.1557 23.3105 28.7274C22.7398 29.299 22.053 29.5844 21.2499 29.5834H3.74992ZM3.74992 26.6667H21.2499V3.33341H18.3333V13.5417L14.6874 11.3542L11.0416 13.5417V3.33341H3.74992V26.6667Z" fill="#FE975B"/>
</svg>
