<svg width="35" height="34" viewBox="0 0 35 34" fill="none" xmlns="http://www.w3.org/2000/svg">
<path d="M35 5.68743V25.6865H32.8125V14.5737L21.875 20.843V23.1866H13.125V20.843L2.1875 14.5737V28.1864H21.875V30.6863H0V5.68743H10.9375V3.18755C10.9375 2.836 10.9945 2.51049 11.1084 2.21103C11.2223 1.91156 11.3761 1.65116 11.5698 1.42982C11.7635 1.20847 11.9971 1.02619 12.2705 0.882966C12.5439 0.739744 12.8288 0.674642 13.125 0.687663H21.875C22.1826 0.687663 22.4674 0.752764 22.7295 0.882966C22.9915 1.01317 23.2194 1.18894 23.4131 1.41029C23.6068 1.63163 23.7663 1.89854 23.8916 2.21103C24.0169 2.52351 24.0739 2.84902 24.0625 3.18755V5.68743H35ZM13.125 5.68743H21.875V3.18755H13.125V5.68743ZM19.6875 18.1868H15.3125V20.6867H19.6875V18.1868ZM32.8125 11.8004V8.18731H2.1875V11.8004L13.125 18.0306V15.687H21.875V18.0306L32.8125 11.8004ZM30.625 28.1864H35V30.6863H30.625V35.686H28.4375V30.6863H24.0625V28.1864H28.4375V23.1866H30.625V28.1864Z" fill="#FF9D58"/>
</svg>
