<?xml version="1.0" encoding="UTF-8"?>
<svg id="Layer_1" data-name="Layer 1" xmlns="http://www.w3.org/2000/svg" viewBox="0 0 277.62 134.94">
  <defs>
    <style>
      .cls-1 {
        font-family: ZenDots-Regular, 'Zen Dots';
        font-size: 24.46px;
      }

      .cls-1, .cls-2 {
        isolation: isolate;
      }

      .cls-3 {
        stroke: #bfbfbf;
      }

      .cls-3, .cls-4, .cls-5, .cls-6, .cls-7, .cls-8 {
        stroke-miterlimit: 10;
      }

      .cls-3, .cls-4, .cls-7 {
        fill: none;
      }

      .cls-4, .cls-5, .cls-6, .cls-7, .cls-8 {
        stroke: #000;
      }

      .cls-5 {
        fill: #dbdada;
      }

      .cls-9 {
        fill: #bfbfbf;
      }

      .cls-7 {
        stroke-width: 16px;
      }

      .cls-10, .cls-8 {
        fill: #eee;
      }
    </style>
  </defs>
  <ellipse class="cls-9" cx="206.73" cy="67.48" rx="56.75" ry="53.91"/>
  <circle class="cls-5" cx="207.15" cy="67.7" r="8.03"/>
  <polygon class="cls-6" points="165.63 .53 48.23 3.02 158.65 6.01 165.63 .53"/>
  <polygon class="cls-6" points="99.52 10.99 152.95 10.37 152 11.36 99.52 10.99"/>
  <polygon class="cls-6" points="143.92 20.49 146.34 17.34 68.14 18.14 143.92 20.49"/>
  <polygon class="cls-6" points="136.71 30.53 140.14 25.28 5.56 27.18 136.71 30.53"/>
  <polygon class="cls-6" points="133.69 36.92 132.95 38.51 18.89 38.31 133.69 36.92"/>
  <polygon class="cls-6" points="130.54 45.62 129.42 48.99 39.02 47.64 130.54 45.62"/>
  <polygon class="cls-6" points="128.52 54.16 128.07 56.41 31.71 55.28 128.52 54.16"/>
  <polygon class="cls-6" points="127.5 61.13 127.41 67.09 1.22 64.28 127.5 61.13"/>
  <polygon class="cls-6" points="127.84 75.07 127.84 78.11 58.36 76.42 127.84 75.07"/>
  <polygon class="cls-6" points="129.19 82.83 129.08 84.52 0 84.29 129.19 82.83"/>
  <polygon class="cls-6" points="131.1 89.8 132.34 94.41 12.37 92.28 131.1 89.8"/>
  <polygon class="cls-6" points="135.26 100.15 136.72 103.52 82.31 102.28 135.26 100.15"/>
  <polygon class="cls-6" points="140.32 109.03 143.25 112.96 46.89 111.95 140.32 109.03"/>
  <polygon class="cls-6" points="147.86 117.91 153.48 124.21 16.31 121.4 147.86 117.91"/>
  <polygon class="cls-6" points="159.77 128.59 166.18 133.2 61.62 131.4 159.77 128.59"/>
  <circle class="cls-7" cx="206.19" cy="67.63" r="58.96"/>
  <circle class="cls-3" cx="207.07" cy="67.34" r="61.43"/>
  <path class="cls-3" d="M202.3,6.15s1.08-3.94,2.39-5.38"/>
  <path class="cls-3" d="M186.24,9.49s.06-2.75,1.08-5.61"/>
  <path class="cls-3" d="M218.37,6.75s2.45-3.17,3.64-4.06"/>
  <path class="cls-3" d="M233.6,11.76s3.34-2.81,4.84-3.4"/>
  <path class="cls-3" d="M247.58,20.96s2.63-1.61,5.02-2.39"/>
  <path class="cls-3" d="M257.97,33.03s2.39-1.08,5.67-1.13"/>
  <path class="cls-3" d="M265.26,47.78s2.87-.24,5.91.12"/>
  <path class="cls-3" d="M268.54,62.95s3.05.54,5.08,2.15"/>
  <path class="cls-3" d="M267.76,77.34s3.23,3.05,4.6,5.14"/>
  <path class="cls-3" d="M262.87,94.07s2.75,2.69,3.46,4.9"/>
  <path class="cls-3" d="M254.15,107.27s1.85,3.29,2.15,5.91"/>
  <path class="cls-3" d="M242.26,117.84s.9,4.24.66,6.57"/>
  <path class="cls-3" d="M227.39,125.37s.72,3.05-.3,6.33"/>
  <path class="cls-3" d="M212.58,128.65s-1.37,4-2.57,6.03"/>
  <path class="cls-3" d="M196.39,127.81s-2.03,4.18-4.24,5.32"/>
  <path class="cls-3" d="M180.86,122.92s-2.63,3.52-4.42,4.36"/>
  <path class="cls-3" d="M167.24,114.14s-3.34,2.45-5.08,3.23"/>
  <path class="cls-3" d="M156.07,102.31s-1.43,1.19-5.67,1.67"/>
  <path class="cls-3" d="M149.03,88.16s-2.45.36-6.33-.48"/>
  <path class="cls-3" d="M145.86,72.03s-2.93,0-6.33-1.97"/>
  <path class="cls-3" d="M146.64,56.5s-3.29-1.25-5.26-4.24"/>
  <path class="cls-3" d="M151.35,41.15s-2.75-3.4-3.76-4.6"/>
  <path class="cls-3" d="M160.02,27.59s-1.37-2.03-1.73-5.32"/>
  <path class="cls-3" d="M172.14,16.48s-.96-.36-.66-5.44"/>
  <ellipse class="cls-3" cx="207.1" cy="67.64" rx="53" ry="51.44"/>
  <path class="cls-8" d="M181.26,99.18s10.25-21.74,15.48-15.48-9.68,19.24-9.68,19.24l-5.81-3.76h0Z"/>
  <path class="cls-8" d="M170.45,84.15l-2.05-6.72s18.21-10.02,20.95-3.87-18.9,10.59-18.9,10.59Z"/>
  <path class="cls-8" d="M167.49,59.45l2.39-6.6s21.63,2.05,19.47,9.33-21.86-2.73-21.86-2.73Z"/>
  <path class="cls-8" d="M179.78,37.7l6.37-3.98s15.14,15.14,10.02,19.12-16.39-15.14-16.39-15.14Z"/>
  <path class="cls-8" d="M202.44,28.03l7.51.11s4.33,20.72-2.85,21.17-4.67-21.29-4.67-21.29h.01Z"/>
  <path class="cls-8" d="M227.71,32.81l5.69,3.87s-10.35,21.43-16.05,16.05c-6.03-5.69,10.36-19.92,10.36-19.92Z"/>
  <path class="cls-8" d="M243.87,51.14s-22.65,3.76-18.9,10.7c3.75,6.94,21.17-3.98,21.17-3.98l-2.28-6.72h0Z"/>
  <path class="cls-8" d="M246.95,76.07s-19.35-9.33-21.97-3.3,19.47,10.25,19.47,10.25l2.5-6.94h0Z"/>
  <path class="cls-8" d="M228.39,102.13l5.81-4.67s-9.6-17.88-15.6-15.25c-6.49,2.85,9.79,19.92,9.79,19.92h0Z"/>
  <path class="cls-8" d="M203.69,108.51s-3.07-21.74,3.98-22.08c7.5-.36,4.33,22.31,4.33,22.31,0,0-8.31-.23-8.31-.23Z"/>
  <path class="cls-8" d="M190.94,104.87s-2.39-.8,0-3.3,6.94-7.85,6.94-7.85c0,0,1.94-1.82,2.39.91s1.14,11.16,1.14,11.16c0,0,.23,2.16-2.05,1.71s-8.42-2.62-8.42-2.62h0Z"/>
  <path class="cls-8" d="M216.18,107.67s-2.41.74-1.91-2.69,1.11-10.43,1.11-10.43c0,0,.52-2.61,2.48-.64s7.39,8.43,7.39,8.43c0,0,1.44,1.63-.68,2.58s-8.38,2.75-8.38,2.75h0Z"/>
  <path class="cls-8" d="M238.23,94.53s-1.37,2.11-3.19-.83-5.85-8.7-5.85-8.7c0,0-1.27-2.33,1.48-2.08s11.08,1.71,11.08,1.71c0,0,2.15.33,1.14,2.41s-4.66,7.49-4.66,7.49h0Z"/>
  <path class="cls-8" d="M247.56,71.57s0,2.52-3.13,1.06-9.67-4.05-9.67-4.05c0,0-2.35-1.25.09-2.56s10.2-4.66,10.2-4.66c0,0,1.98-.91,2.28,1.39s.23,8.82.23,8.82h0Z"/>
  <path class="cls-8" d="M242.27,46.85s1.53,2-1.85,2.74-10.15,2.62-10.15,2.62c0,0-2.62.43-1.47-2.09s5.3-9.88,5.3-9.88c0,0,1.02-1.92,2.65-.27s5.51,6.89,5.51,6.89h.01Z"/>
  <path class="cls-8" d="M223.08,30.3s2.4.77.03,3.3-6.87,7.92-6.87,7.92c0,0-1.92,1.84-2.4-.89s-1.25-11.14-1.25-11.14c0,0-.25-2.16,2.03-1.73s8.45,2.54,8.45,2.54h0Z"/>
  <path class="cls-8" d="M198.68,28.36s2.42-.69,1.86,2.72c-.56,3.42-1.3,10.4-1.3,10.4,0,0-.57,2.6-2.49.6s-7.24-8.56-7.24-8.56c0,0-1.41-1.66.73-2.57s8.43-2.6,8.43-2.6h.01Z"/>
  <path class="cls-8" d="M176.56,41.27s1.43-2.07,3.17.92c1.74,2.99,5.6,8.86,5.6,8.86,0,0,1.21,2.37-1.54,2.04s-11.03-2.02-11.03-2.02c0,0-2.14-.39-1.07-2.44s4.87-7.36,4.87-7.36Z"/>
  <path class="cls-8" d="M166.6,64.57s-.03-2.52,3.12-1.08c3.15,1.44,9.69,4.01,9.69,4.01,0,0,2.35,1.24-.08,2.56s-10.18,4.71-10.18,4.71c0,0-1.97.92-2.28-1.38s-.27-8.82-.27-8.82h0Z"/>
  <path class="cls-8" d="M172.24,89.11s-1.52-2.01,1.87-2.72,10.17-2.54,10.17-2.54c0,0,2.63-.41,1.45,2.1-1.17,2.51-5.38,9.84-5.38,9.84,0,0-1.04,1.91-2.66.25s-5.46-6.93-5.46-6.93h.01Z"/>
  <circle class="cls-8" cx="195.42" cy="59.75" r="2.86"/>
  <circle class="cls-8" cx="211.37" cy="54.17" r="2.86"/>
  <circle class="cls-8" cx="221.55" cy="67.68" r="2.86"/>
  <circle class="cls-8" cx="195.81" cy="76.78" r="2.86"/>
  <circle class="cls-8" cx="211.96" cy="81.28" r="2.86"/>
  <path class="cls-4" d="M197.95,55.95s4.8-3.13,8.81-2.94"/>
  <path class="cls-4" d="M215.56,55.37s4.7,3.72,5.68,7.54"/>
  <path class="cls-4" d="M216.15,79.83s3.72-1.96,5.38-7.63"/>
  <path class="cls-4" d="M198.83,80.13s4.99,3.72,8.71,2.35"/>
  <path class="cls-4" d="M193.05,72.79s-1.37-5.48-.1-9.3"/>
  <circle class="cls-6" cx="207.24" cy="67.8" r="6.46"/>
  <rect class="cls-10" x=".52" y="48.02" width="277.1" height="41.74"/>
  <g class="cls-2">
    <text class="cls-1" transform="translate(10.88 78.31)"><tspan x="0" y="0">EISEN CA</tspan></text>
    <text class="cls-1" transform="translate(159.04 78.31)"><tspan x="0" y="0">R</tspan></text>
    <text class="cls-1" transform="translate(181.62 78.31)"><tspan x="0" y="0">W</tspan></text>
    <text class="cls-1" transform="translate(207.42 78.31)"><tspan x="0" y="0">ASH</tspan></text>
  </g>
</svg>