<?xml version="1.0" encoding="UTF-8"?>
<svg id="Layer_2" data-name="Layer 2" xmlns="http://www.w3.org/2000/svg" viewBox="0 0 553.85 136.67">
  <defs>
    <style>
      .cls-1, .cls-2 {
        fill: #ff8e1b;
      }

      .cls-3 {
        isolation: isolate;
      }

      .cls-2, .cls-4, .cls-5 {
        stroke: #ff8e1b;
        stroke-miterlimit: 10;
      }

      .cls-4, .cls-5 {
        fill: #eee;
      }

      .cls-5 {
        stroke-width: .2px;
      }
    </style>
  </defs>
  <g id="Layer_1-2" data-name="Layer 1-2">
    <circle class="cls-2" cx="51.92" cy="103.4" r="32.77"/>
    <path class="cls-1" d="M.11,94.71s-5.37-36.98,57.35-54.97c0,0,20.74-6.75,55.22-6.75,0,0,75.71,2.25,91.21,2.25s87.96,4.75,151.43-12.24c0,0-84.46-37.23-188.16,10l-1.99,1.07S199.01-1.74,277.75.07c78.74,1.81,111.97,24.17,111.97,24.17l11.88,7.65s43.3-4.63,52.36-9.06c0,0-2.42,6.85-18.53,20.54,0,0,15.17,12.57,1.68,44.89,0,0-11.69-25.16-62.09-14.38,0,0-105.72-2.01-155.26,4.23s-81.96,11.28-116.2,26.99c0,0,2.22-37.46-42.49-48.33,0,0-49.4-9.88-60.95,37.96v-.02h-.01Z"/>
    <g class="cls-3">
      <g class="cls-3">
        <g class="cls-3">
          <g class="cls-3">
            <path d="M152.01,125.86v-26.74h29.32v4.86h-23.34v5.91h21.17v4.86h-21.17v6.25h23.34v4.86h-29.32Z"/>
            <path d="M185.44,125.86v-26.74h5.98v26.74h-5.98Z"/>
            <path d="M195.8,126.05v-4.86l21.5.04c1.1,0,1.94-.25,2.52-.77.59-.51.88-1.34.88-2.49s-.29-1.98-.88-2.49c-.59-.51-1.43-.77-2.52-.77h-13.39c-2.77,0-4.92-.67-6.45-2-1.53-1.33-2.3-3.3-2.3-5.89s.77-4.56,2.3-5.89c1.53-1.33,3.68-2,6.45-2h21.02v4.86l-20.38-.04c-1.07,0-1.91.24-2.51.73-.6.49-.9,1.27-.9,2.34s.3,1.85.9,2.34c.6.49,1.43.73,2.51.73h13.39c2.77,0,4.92.68,6.45,2.04,1.53,1.36,2.3,3.37,2.3,6.04s-.77,4.65-2.3,6.02c-1.53,1.37-3.68,2.06-6.45,2.06h-22.14Z"/>
            <path d="M230.44,125.86v-26.74h29.32v4.86h-23.34v5.91h21.17v4.86h-21.17v6.25h23.34v4.86h-29.32Z"/>
            <path d="M263.87,125.86v-26.74h6.06l18.92,19.22v-19.22h5.98v26.74h-6.06l-18.92-19.26v19.26h-5.98Z"/>
            <path d="M326.93,126.05c-4.94,0-8.71-1.14-11.33-3.42-2.62-2.28-3.93-5.67-3.93-10.15s1.31-7.84,3.93-10.13c2.62-2.29,6.4-3.43,11.33-3.4l13.46.07v4.79h-13.05c-3.24,0-5.65.69-7.22,2.06-1.57,1.37-2.36,3.58-2.36,6.62s.79,5.25,2.36,6.64c1.57,1.38,3.98,2.08,7.22,2.08h13.43v4.86h-13.84Z"/>
            <path d="M342.26,125.86l12.04-26.74h9.24l12.04,26.74h-6.51l-2.54-5.65h-15.22l-2.54,5.65h-6.51ZM353.48,115.35h10.88l-5.2-11.56h-.49l-5.2,11.56Z"/>
          </g>
        </g>
      </g>
      <g class="cls-3">
        <g class="cls-3">
          <g class="cls-3">
            <path d="M378.59,125.86v-26.74h22.4c2.77,0,4.92.7,6.45,2.09,1.53,1.4,2.3,3.52,2.3,6.36,0,2.42-.56,4.31-1.68,5.69s-2.72,2.23-4.79,2.58l6.17,10.02h-6.81l-5.72-9.84h-12.34v9.84h-5.98ZM400.28,103.98h-15.71v7.14l15.71.04c1.1,0,1.94-.27,2.52-.82.58-.55.88-1.47.88-2.77s-.29-2.25-.88-2.79c-.59-.54-1.43-.8-2.52-.8Z"/>
          </g>
        </g>
      </g>
      <g class="cls-3">
        <g class="cls-3">
          <g class="cls-3">
            <path d="M415.35,125.86l-2.99-26.74h5.98l2.21,19.52,7.44-5.72v-13.8h5.98v13.84l7.37,5.69,2.24-19.52h5.98l-2.99,26.74h-5.01l-10.58-8.56-10.62,8.56h-5.01Z"/>
          </g>
        </g>
      </g>
      <g class="cls-3">
        <g class="cls-3">
          <g class="cls-3">
            <path d="M450.32,125.86l12.04-26.74h9.24l12.04,26.74h-6.51l-2.54-5.65h-15.22l-2.54,5.65h-6.51ZM461.54,115.35h10.88l-5.2-11.56h-.49l-5.2,11.56Z"/>
            <path d="M485.78,126.05v-4.86l21.5.04c1.1,0,1.94-.25,2.52-.77.59-.51.88-1.34.88-2.49s-.29-1.98-.88-2.49c-.59-.51-1.43-.77-2.52-.77h-13.39c-2.77,0-4.92-.67-6.45-2-1.53-1.33-2.3-3.3-2.3-5.89s.77-4.56,2.3-5.89,3.68-2,6.45-2h21.02v4.86l-20.38-.04c-1.07,0-1.91.24-2.51.73-.6.49-.9,1.27-.9,2.34s.3,1.85.9,2.34c.6.49,1.43.73,2.51.73h13.39c2.77,0,4.92.68,6.45,2.04,1.53,1.36,2.3,3.37,2.3,6.04s-.77,4.65-2.3,6.02c-1.53,1.37-3.68,2.06-6.45,2.06h-22.14Z"/>
            <path d="M520.41,125.86v-26.74h5.98v10.96h18.85v-10.96h5.98v26.74h-5.98v-10.92h-18.85v10.92h-5.98Z"/>
          </g>
        </g>
      </g>
    </g>
    <path class="cls-4" d="M33.75,115.2s-5.49-8.1-3.14-18.29c0,0,18.42,6.27,3.14,18.29Z"/>
    <path class="cls-4" d="M35.23,89.03s6.16-7.6,16.59-8.31c0,0-.65,19.45-16.59,8.31Z"/>
    <path class="cls-4" d="M60.3,82.54s8.97,3.92,12.42,13.8c0,0-18.93,4.53-12.42-13.8Z"/>
    <path class="cls-4" d="M74.48,105.76s-1.83,9.61-10.7,15.17c0,0-8.62-17.45,10.7-15.17Z"/>
    <path class="cls-4" d="M55.89,125.08s-9.57,2.04-18.13-3.97c0,0,12.74-14.72,18.13,3.97Z"/>
    <circle class="cls-5" cx="44.45" cy="102.13" r="1.87"/>
    <circle class="cls-5" cx="53.21" cy="96.19" r="1.87"/>
    <circle class="cls-5" cx="59.12" cy="104.91" r="1.87"/>
    <circle class="cls-5" cx="50.26" cy="110.41" r="1.87"/>
  </g>
</svg>