<?xml version="1.0" encoding="UTF-8"?>
<svg id="Layer_2" data-name="Layer 2" xmlns="http://www.w3.org/2000/svg" viewBox="0 0 553.85 136.67">
  <defs>
    <style>
      .cls-1, .cls-2 {
        fill: #ff8e1b;
      }

      .cls-3, .cls-4 {
        isolation: isolate;
      }

      .cls-2, .cls-5, .cls-6 {
        stroke: #ff8e1b;
        stroke-miterlimit: 10;
      }

      .cls-4 {
        font-family: ZenDots-Regular, 'Zen Dots';
        font-size: 37.4px;
      }

      .cls-5, .cls-6 {
        fill: #eee;
      }

      .cls-6 {
        stroke-width: .2px;
      }
    </style>
  </defs>
  <g id="Layer_1-2" data-name="Layer 1">
    <circle class="cls-2" cx="51.92" cy="103.4" r="32.77"/>
    <path class="cls-1" d="M.11,94.71s-5.37-36.98,57.35-54.97c0,0,20.74-6.75,55.22-6.75,0,0,75.71,2.25,91.21,2.25s87.96,4.75,151.43-12.24c0,0-84.46-37.23-188.16,10l-1.99,1.07S199.01-1.74,277.75.07c78.74,1.81,111.97,24.17,111.97,24.17l11.88,7.65s43.3-4.63,52.36-9.06c0,0-2.42,6.85-18.53,20.54,0,0,15.17,12.57,1.68,44.89,0,0-11.69-25.16-62.09-14.38,0,0-105.72-2.01-155.26,4.23s-81.96,11.28-116.2,26.99c0,0,2.22-37.46-42.49-48.33,0,0-49.4-9.88-60.95,37.96v-.02h-.01Z"/>
    <g class="cls-3">
      <g class="cls-3">
        <text class="cls-4" transform="translate(149.39 125.86)"><tspan x="0" y="0">EISEN CA</tspan></text>
      </g>
      <g class="cls-3">
        <text class="cls-4" transform="translate(375.97 125.86)"><tspan x="0" y="0">R</tspan></text>
      </g>
      <g class="cls-3">
        <text class="cls-4" transform="translate(410.49 125.86)"><tspan x="0" y="0">W</tspan></text>
      </g>
      <g class="cls-3">
        <text class="cls-4" transform="translate(449.95 125.86)"><tspan x="0" y="0">ASH</tspan></text>
      </g>
    </g>
    <path class="cls-5" d="M33.75,115.2s-5.49-8.1-3.14-18.29c0,0,18.42,6.27,3.14,18.29Z"/>
    <path class="cls-5" d="M35.23,89.03s6.16-7.6,16.59-8.31c0,0-.65,19.45-16.59,8.31Z"/>
    <path class="cls-5" d="M60.3,82.54s8.97,3.92,12.42,13.8c0,0-18.93,4.53-12.42-13.8Z"/>
    <path class="cls-5" d="M74.48,105.76s-1.83,9.61-10.7,15.17c0,0-8.62-17.45,10.7-15.17Z"/>
    <path class="cls-5" d="M55.89,125.08s-9.57,2.04-18.13-3.97c0,0,12.74-14.72,18.13,3.97Z"/>
    <circle class="cls-6" cx="44.45" cy="102.13" r="1.87"/>
    <circle class="cls-6" cx="53.21" cy="96.19" r="1.87"/>
    <circle class="cls-6" cx="59.12" cy="104.91" r="1.87"/>
    <circle class="cls-6" cx="50.26" cy="110.41" r="1.87"/>
  </g>
</svg>