<?xml version="1.0" encoding="UTF-8"?>
<svg id="Layer_1" data-name="Layer 1" xmlns="http://www.w3.org/2000/svg" viewBox="0 0 567.49 138.79">
  <defs>
    <style>
      .cls-1, .cls-2 {
        fill: #ff8e1b;
      }

      .cls-3, .cls-4 {
        isolation: isolate;
      }

      .cls-2, .cls-5, .cls-6 {
        stroke: #ff8e1b;
        stroke-miterlimit: 10;
      }

      .cls-4 {
        font-family: ZenDots-Regular, 'Zen Dots';
        font-size: 37.4px;
      }

      .cls-5, .cls-6 {
        fill: #eee;
      }

      .cls-6 {
        stroke-width: .2px;
      }
    </style>
  </defs>
  <circle class="cls-2" cx="65.55" cy="105.52" r="32.77"/>
  <path class="cls-1" d="M13.74,96.83s-5.37-36.98,57.35-54.97c0,0,20.74-6.75,55.22-6.75,0,0,75.71,2.25,91.21,2.25s87.96,4.75,151.43-12.24c0,0-84.46-37.23-188.16,10l-1.99,1.07S212.64.38,291.38,2.19c78.74,1.81,111.97,24.17,111.97,24.17l11.88,7.65s43.3-4.63,52.36-9.06c0,0-2.42,6.85-18.53,20.54,0,0,15.17,12.57,1.68,44.89,0,0-11.69-25.16-62.09-14.38,0,0-105.72-2.01-155.26,4.23s-81.96,11.28-116.2,26.99c0,0,2.22-37.46-42.49-48.33,0,0-49.4-9.88-60.95,37.96v-.02h-.01Z"/>
  <g class="cls-3">
    <g class="cls-3">
      <text class="cls-4" transform="translate(163.02 127.98)"><tspan x="0" y="0">EISEN CA</tspan></text>
    </g>
    <g class="cls-3">
      <text class="cls-4" transform="translate(389.6 127.98)"><tspan x="0" y="0">R</tspan></text>
    </g>
    <g class="cls-3">
      <text class="cls-4" transform="translate(424.12 127.98)"><tspan x="0" y="0">W</tspan></text>
    </g>
    <g class="cls-3">
      <text class="cls-4" transform="translate(463.58 127.98)"><tspan x="0" y="0">ASH</tspan></text>
    </g>
  </g>
  <path class="cls-5" d="M47.38,117.32s-5.49-8.1-3.14-18.29c0,0,18.42,6.27,3.14,18.29Z"/>
  <path class="cls-5" d="M48.86,91.15s6.16-7.6,16.59-8.31c0,0-.65,19.45-16.59,8.31Z"/>
  <path class="cls-5" d="M73.93,84.66s8.97,3.92,12.42,13.8c0,0-18.93,4.53-12.42-13.8Z"/>
  <path class="cls-5" d="M88.11,107.88s-1.83,9.61-10.7,15.17c0,0-8.62-17.45,10.7-15.17Z"/>
  <path class="cls-5" d="M69.52,127.2s-9.57,2.04-18.13-3.97c0,0,12.74-14.72,18.13,3.97Z"/>
  <circle class="cls-6" cx="58.08" cy="104.25" r="1.87"/>
  <circle class="cls-6" cx="66.84" cy="98.31" r="1.87"/>
  <circle class="cls-6" cx="72.75" cy="107.03" r="1.87"/>
  <circle class="cls-6" cx="63.89" cy="112.53" r="1.87"/>
</svg>