<svg width="24" height="24" viewBox="0 0 24 24" fill="none" xmlns="http://www.w3.org/2000/svg">
<g id="iconoir:clean-water">
<path id="Vector" d="M12.9999 21.57C11.319 21.7781 9.61512 21.4562 8.12603 20.6492C6.63693 19.8422 5.43697 18.5904 4.69365 17.0685C3.95033 15.5467 3.70075 13.8307 3.97975 12.1601C4.25874 10.4895 5.05239 8.94776 6.2499 7.75001L11.5759 2.42401C11.6884 2.31165 11.8409 2.24854 11.9999 2.24854C12.1589 2.24854 12.3114 2.31165 12.4239 2.42401L17.7499 7.75001C18.8092 8.80848 19.5556 10.139 19.9068 11.5947C20.2579 13.0505 20.2002 14.575 19.7399 16M15.9999 20L17.9999 22L21.9999 18" stroke="#FE975B" stroke-width="1.5" stroke-linecap="round" stroke-linejoin="round"/>
</g>
</svg>
